<?xml version="1.0" encoding="UTF-8" standalone="no"?><!DOCTYPE svg PUBLIC "-//W3C//DTD SVG 1.1//EN" "http://www.w3.org/Graphics/SVG/1.1/DTD/svg11.dtd"><svg width="100%" height="100%" viewBox="0 0 200 200" version="1.1" xmlns="http://www.w3.org/2000/svg" xmlns:xlink="http://www.w3.org/1999/xlink" xml:space="preserve" style="fill-rule:evenodd;clip-rule:evenodd;stroke-linejoin:round;stroke-miterlimit:1.41421;"><g><path id="human" d="M199.31,73.672c0.291,0.553 0.511,1.516 0.439,1.823c-0.698,2.991 -5.537,3.955 -5.537,5.201c0,1.247 1.907,3.507 1.942,4.89c0.035,1.382 -3.637,2.87 -9,2.173c-3.503,-0.455 3.191,2.898 7.058,4.177c2.219,0.734 -1.94,3.772 -2.378,5.396c-0.437,1.623 2.258,5.605 -1.339,9.69c-2.882,3.273 -12.502,3.441 -18.9,3.155l0,0.096c0,10.233 -2.181,19.961 -6.103,28.743l-2.215,4.519l-1.883,3.3c-12.386,20.415 -34.826,34.067 -60.428,34.067c-10.249,0 -19.99,-2.187 -28.783,-6.12c21.092,-13.718 35.05,-37.496 35.05,-64.509c0,-9.317 -1.66,-18.25 -4.702,-26.518c-2.679,-5.803 -4.174,-12.263 -4.174,-19.07c0,-25.16 20.427,-45.587 45.588,-45.587c21.32,0 39.242,14.667 44.216,34.453l0.09,0.148c2.139,7.515 9.142,16.341 11.059,19.973l0,0Z" style="fill:#fff;"/><path id="Layer2" d="M17.776,110.742c-2.756,-0.414 -5.616,-1.879 -5.825,-3.576c-0.228,-1.846 10.47,-7.404 12.563,-8.885c1.727,-1.221 -23.388,3.63 -24.276,-15.857c-0.182,-4.009 18.145,-3.593 20.713,-5.325c2.568,-1.732 7.037,-9.906 10.599,-12.111c3.562,-2.205 14.14,-3.438 16.44,-4.864c2.3,-1.426 10.105,-19.84 14.611,-18.819c4.74,1.075 7.071,12.706 7.706,18.263l0,0.061c0,20.809 12.577,38.703 30.538,46.49c0.08,1.374 0.121,2.76 0.121,4.154c0,26.121 -14.21,48.948 -35.315,61.168c-20.956,-12.133 -35.114,-34.726 -35.312,-60.617l-0.002,0.003l-12.561,-0.085l0,0Z" style="fill:#fff;"/></g></svg>