<?xml version="1.0" encoding="UTF-8" standalone="no"?><!DOCTYPE svg PUBLIC "-//W3C//DTD SVG 1.1//EN" "http://www.w3.org/Graphics/SVG/1.1/DTD/svg11.dtd"><svg width="100%" height="100%" viewBox="0 0 290 140" version="1.1" xmlns="http://www.w3.org/2000/svg" xmlns:xlink="http://www.w3.org/1999/xlink" xml:space="preserve" style="fill-rule:evenodd;clip-rule:evenodd;stroke-linejoin:round;stroke-miterlimit:1.41421;"><g><g><rect x="8" y="0" width="8" height="140" style="fill:url(#_Linear1);"/><rect x="16" y="0" width="8" height="140" style="fill:#bfbfbf;"/><rect x="0" y="0" width="8" height="140" style="fill:#bfbfbf;"/></g><path d="M46,140l0,-100l12.89,0c9.081,0 15.825,2.016 20.233,6.047c4.407,4.031 6.611,10.852 6.611,20.465c0,4.695 -0.653,8.571 -1.96,11.628c-1.307,3.056 -3.688,6.068 -7.143,9.036c0.266,0.089 0.62,0.299 1.063,0.631c0.443,0.333 1.263,1.108 2.459,2.326c1.196,1.218 2.248,2.669 3.156,4.352c0.908,1.683 1.716,4.042 2.425,7.076c0.709,3.035 1.063,6.412 1.063,10.133c0,18.339 -7.574,27.774 -22.724,28.306l-18.073,0Zm14.684,-14.551c3.278,0 5.693,-0.687 7.243,-2.06c2.436,-2.437 3.654,-6.888 3.654,-13.356c0,-3.632 -0.365,-6.6 -1.096,-8.903c-0.731,-2.304 -1.75,-3.865 -3.056,-4.685c-1.307,-0.819 -2.37,-1.318 -3.19,-1.495c-0.819,-0.177 -1.827,-0.266 -3.023,-0.266l-0.532,0l0,30.765Zm0,-44.253c1.019,0 1.772,-0.022 2.26,-0.066c0.487,-0.045 1.373,-0.266 2.657,-0.665c1.285,-0.399 2.282,-1.03 2.99,-1.894c0.709,-0.863 1.385,-2.203 2.027,-4.02c0.642,-1.816 0.963,-4.042 0.963,-6.677c0,-2.636 -0.321,-4.862 -0.963,-6.678c-0.642,-1.816 -1.318,-3.156 -2.027,-4.02c-0.708,-0.864 -1.705,-1.495 -2.99,-1.894c-1.284,-0.398 -2.17,-0.62 -2.657,-0.664c-0.488,-0.044 -1.241,-0.067 -2.26,-0.067l0,26.645Z" style="fill:#bfbfbf;fill-rule:nonzero;"/><path d="M109.797,140l0,-100l33.622,0l0,15.083l-18.937,0l0,26.246l13.621,0l0,16.08l-13.621,0l0,27.508l18.937,0l0,15.083l-33.622,0Z" style="fill:#bfbfbf;fill-rule:nonzero;"/><path d="M163.419,140l15.149,-100l17.94,0l15.083,100l-14.285,0l-2.725,-20.399l-14.152,0l-2.658,20.399l-14.352,0Zm19.069,-35.947l10.1,0l-4.252,-31.561l-0.399,-2.592l-0.797,0l-0.399,2.592l-4.253,31.561Z" style="fill:#bfbfbf;fill-rule:nonzero;"/><path d="M234.512,140l0,-100l17.94,0l8.704,45.714l0.731,5.316l0.266,0l0.664,-5.316l8.705,-45.714l17.94,0l0,100l-13.555,0l0,-62.857l0,-4.253l-0.864,0l-0.531,4.253l-9.369,62.857l-6.246,0l-9.435,-62.857l-0.532,-4.253l-0.797,0l0,67.11l-13.621,0Z" style="fill:#bfbfbf;fill-rule:nonzero;"/></g><defs><linearGradient id="_Linear1" x1="0" y1="0" x2="1" y2="0" gradientUnits="userSpaceOnUse" gradientTransform="matrix(8.35463e-15,-136.441,136.441,8.35463e-15,12,153.174)"><stop offset="0%" style="stop-color:#ffe708;stop-opacity:1"/><stop offset="100%" style="stop-color:#88f2ff;stop-opacity:1"/></linearGradient></defs></svg>