<?xml version="1.0" encoding="UTF-8" standalone="no"?><!DOCTYPE svg PUBLIC "-//W3C//DTD SVG 1.1//EN" "http://www.w3.org/Graphics/SVG/1.1/DTD/svg11.dtd"><svg width="100%" height="100%" viewBox="0 0 529 352" version="1.1" xmlns="http://www.w3.org/2000/svg" xmlns:xlink="http://www.w3.org/1999/xlink" xml:space="preserve" style="fill-rule:evenodd;clip-rule:evenodd;stroke-linejoin:round;stroke-miterlimit:1.41421;"><rect id="cb-logo" x="0" y="0" width="528.986" height="352" style="fill:none;"/><clipPath id="_clip1"><rect x="0" y="0" width="528.986" height="352"/></clipPath><g clip-path="url(#_clip1)"><g><path d="M439.881,232c-23.414,69.718 -89.326,120 -166.889,120c-77.563,0 -143.475,-50.282 -166.889,-120l34.201,0c21.866,51.692 73.07,88 132.688,88c59.618,0 110.822,-36.308 132.688,-88l34.201,0Zm-342.889,-56l0,0Zm9.111,-56c23.414,-69.718 89.326,-120 166.889,-120c77.563,0 143.475,50.282 166.889,120l-34.201,0c-21.866,-51.692 -73.07,-88 -132.688,-88c-59.618,0 -110.822,36.308 -132.688,88l-34.201,0l0,0Z" style="fill:#1d90ff;"/><g><path d="M0.992,176.422c0,15.905 11.642,23.857 23.002,23.573c9.658,0 19.597,-5.114 21.3,-18.459c-3.976,0 -7.383,0 -11.36,0c-1.135,4.827 -5.112,7.385 -9.94,7.385c-6.816,0 -11.076,-5.966 -11.076,-13.065c0,-7.669 4.544,-13.063 11.076,-13.063c4.828,0 8.238,1.987 9.94,6.814c3.977,0 7.384,0 11.36,0c-1.703,-12.495 -11.642,-17.606 -21.3,-17.606c-11.076,0.85 -23.002,8.52 -23.002,24.421l0,0Z" style="fill:#1d90ff;fill-rule:nonzero;"/><path d="M100.452,175.894c0,-31.859 -45.674,-31.859 -45.674,0c-0.283,32.143 45.674,32.143 45.674,0Zm-33.835,0c0,-16.634 22.556,-16.634 22.556,0c-0.562,16.918 -22.556,16.918 -22.556,0Z" style="fill:#1d90ff;fill-rule:nonzero;"/><path d="M130.021,152.001l-17.562,0l0,47.999l17.562,0c29.853,-0.293 29.853,-47.706 0,-47.999Zm-5.855,11.121l5.563,0c14.925,0 14.925,25.465 0,25.465l-5.563,0c0,0.293 0,-25.465 0,-25.465Z" style="fill:#1d90ff;fill-rule:nonzero;"/><path d="M192.66,152c-10.829,0 -18.147,0 -28.976,0c0,15.806 0,31.904 0,48.001c10.829,0 18.732,0 29.562,0c0,-3.512 0,-7.317 0,-10.83c-7.027,0 -11.122,0 -17.561,0c0,-2.926 0,-5.56 0,-8.487l15.805,0c0,-3.512 0,-7.317 0,-10.83l-15.805,0l0,-6.734c6.731,0 10.244,0 17.268,0c-0.293,-3.801 -0.293,-7.609 -0.293,-11.12Z" style="fill:#1d90ff;fill-rule:nonzero;"/><path d="M240.941,166.635c0,-8.487 -6.438,-14.635 -14.929,-14.635l-20.489,0l0,48.001l22.541,0c9.657,0 14.928,-6.73 14.928,-15.221c0,-4.096 -1.757,-7.901 -5.854,-9.658c2.339,-1.755 3.803,-5.559 3.803,-8.487l0,0Zm-14.343,14.635c4.978,0 4.978,8.194 0,8.194l-9.658,0l0,-8.194l9.658,0Zm-1.464,-18.148c4.978,0 4.978,7.904 0,7.904l-7.905,0l0,-7.904l7.905,0Z" style="fill:#1d90ff;fill-rule:nonzero;"/><path d="M292.079,170.218l0,13.302c0,10.412 -8.966,16.481 -19.087,16.481c-9.543,0 -19.087,-6.069 -19.087,-16.481l0,-13.302l11.568,0l0,13.013c0,3.757 3.761,5.783 7.23,5.783c3.47,0 7.23,-1.735 7.23,-5.783l0,-13.013l12.146,0Zm-26.027,-13.013c0,1.446 -0.579,2.891 -1.446,3.758c-1.157,1.159 -2.314,1.446 -3.76,1.446c-0.288,0 -0.578,0 -0.867,0c-1.446,0 -2.89,-0.576 -3.759,-1.446c-1.157,-1.156 -1.445,-2.312 -1.445,-3.758c0,-1.447 0.577,-2.892 1.445,-3.759c0.869,-0.869 2.313,-1.446 3.759,-1.446c0.289,0 0.579,0 0.867,0c1.446,0 2.89,0.578 3.76,1.446c0.867,0.867 1.446,2.314 1.446,3.759Zm26.027,0c0,1.446 -0.58,2.891 -1.447,3.758c-1.156,1.159 -2.313,1.446 -3.761,1.446c-0.287,0 -0.576,0 -0.866,0c-1.445,0 -2.891,-0.576 -3.757,-1.446c-0.87,-0.867 -1.446,-2.312 -1.446,-3.758c0,-1.447 0.576,-2.892 1.446,-3.759c0.866,-0.869 2.312,-1.446 3.757,-1.446c0.29,0 0.579,0 0.866,0c1.448,0 2.891,0.578 3.761,1.446c0.867,0.867 1.447,2.314 1.447,3.759Z" style="fill:#1d90ff;fill-rule:nonzero;"/><path d="M323.138,152.001l-18.146,0l0,47.999l18.146,0c31.026,0 31.026,-47.706 0,-47.999Zm-5.558,11.414l5.854,0c15.218,0 15.218,25.756 0,25.756l-5.854,0l0,-25.756Z" style="fill:#1d90ff;fill-rule:nonzero;"/><path d="M377.529,152.001l-18.148,0l0,47.999l18.148,0c31.607,0 31.607,-47.706 0,-47.999Zm-5.855,11.414l5.855,0c15.217,0 15.217,25.756 0,25.756l-5.855,0l0,-25.756Z" style="fill:#1d90ff;fill-rule:nonzero;"/><path d="M429.01,189.236l0,-26.47l5.526,0c0,-4.074 0,-6.402 0,-10.765c-7.855,0 -15.416,0 -23.27,0c0,3.781 0,6.401 0,10.765l5.525,0l0,26.47l-6.109,0c0,3.784 0,6.402 0,10.764c8.148,0 16.292,0 24.437,0c0,-4.071 0,-6.692 0,-10.764c-0.293,0 -6.109,0 -6.109,0l0,0Z" style="fill:#1d90ff;fill-rule:nonzero;"/><path d="M478.566,152.001c-11.414,0 -19.025,0 -29.852,0c0,16.098 0,32.195 0,47.999c11.121,0 19.314,0 30.731,0c0,-3.803 0,-7.317 0,-11.12c-7.027,0 -11.417,0 -18.44,0c0,-2.927 0,-5.564 0,-8.487l16.39,0c0,-3.807 0,-7.317 0,-11.124l-16.39,0l0,-6.73c7.023,0 10.83,0 17.854,0c-0.293,-3.219 -0.293,-6.733 -0.293,-10.538l0,0Z" style="fill:#1d90ff;fill-rule:nonzero;"/><path d="M502.654,184.636c-3.963,0 -7.645,0 -11.324,0c-0.283,20.672 37.662,20.106 37.662,0.567c0,-11.611 -9.063,-13.026 -18.407,-13.594c-3.964,-0.565 -7.648,-1.133 -7.363,-4.812c0.567,-5.665 13.027,-6.232 13.027,0.281c3.962,0 7.079,0 11.326,0c0.284,-20.104 -35.965,-20.104 -35.681,0c0.284,10.195 6.796,13.595 16.991,14.159c4.531,0.283 8.779,0.851 8.779,3.966c-0.284,5.38 -15.01,5.663 -15.01,-0.567Z" style="fill:#1d90ff;fill-rule:nonzero;"/></g></g></g></svg>