<?xml version="1.0" encoding="UTF-8" standalone="no"?><!DOCTYPE svg PUBLIC "-//W3C//DTD SVG 1.1//EN" "http://www.w3.org/Graphics/SVG/1.1/DTD/svg11.dtd"><svg width="100%" height="100%" viewBox="0 0 150 150" version="1.1" xmlns="http://www.w3.org/2000/svg" xmlns:xlink="http://www.w3.org/1999/xlink" xml:space="preserve" style="fill-rule:evenodd;clip-rule:evenodd;stroke-linejoin:round;stroke-miterlimit:1.41421;"><rect id="codebuddies-logo" x="0" y="0" width="150" height="150" style="fill:none;"/><clipPath id="_clip1"><rect x="0" y="0" width="150" height="150"/></clipPath><g clip-path="url(#_clip1)"><g><path d="M124.684,90.909c-6.651,19.806 -25.376,34.091 -47.411,34.091c-22.035,0 -40.76,-14.285 -47.412,-34.091l9.716,0c6.212,14.685 20.759,25 37.696,25c16.937,0 31.483,-10.315 37.695,-25l9.716,0Zm-94.823,-31.818c6.652,-19.806 25.377,-34.091 47.412,-34.091c22.035,0 40.76,14.285 47.411,34.091l-9.716,0c-6.212,-14.685 -20.758,-25 -37.695,-25c-16.937,0 -31.484,10.315 -37.696,25l-9.716,0l0,0Z" style="fill:#1d90ff;"/><g><path d="M0,75.12c0,4.518 3.307,6.777 6.535,6.697c2.743,0 5.567,-1.453 6.051,-5.244c-1.13,0 -2.098,0 -3.227,0c-0.323,1.371 -1.453,2.098 -2.824,2.098c-1.937,0 -3.147,-1.695 -3.147,-3.712c0,-2.179 1.291,-3.711 3.147,-3.711c1.371,0 2.34,0.564 2.824,1.936c1.129,0 2.097,0 3.227,0c-0.484,-3.55 -3.308,-5.002 -6.051,-5.002c-3.147,0.242 -6.535,2.421 -6.535,6.938l0,0Z" style="fill:#1d90ff;fill-rule:nonzero;"/><path d="M28.256,74.97c0,-9.051 -12.976,-9.051 -12.976,0c-0.08,9.131 12.976,9.131 12.976,0Zm-9.613,0c0,-4.726 6.408,-4.726 6.408,0c-0.159,4.806 -6.408,4.806 -6.408,0Z" style="fill:#1d90ff;fill-rule:nonzero;"/><path d="M36.656,68.182l-4.989,0l0,13.636l4.989,0c8.481,-0.083 8.481,-13.553 0,-13.636Zm-1.663,3.159l1.58,0c4.24,0 4.24,7.235 0,7.235l-1.58,0c0,0.083 0,-7.235 0,-7.235Z" style="fill:#1d90ff;fill-rule:nonzero;"/><path d="M54.451,68.182c-3.076,0 -5.155,0 -8.232,0c0,4.49 0,9.063 0,13.636c3.077,0 5.322,0 8.399,0c0,-0.997 0,-2.078 0,-3.076c-1.997,0 -3.16,0 -4.989,0c0,-0.831 0,-1.58 0,-2.411l4.49,0c0,-0.998 0,-2.079 0,-3.077l-4.49,0l0,-1.913c1.912,0 2.91,0 4.905,0c-0.083,-1.08 -0.083,-2.162 -0.083,-3.159l0,0Z" style="fill:#1d90ff;fill-rule:nonzero;"/><path d="M68.167,72.339c0,-2.411 -1.829,-4.157 -4.241,-4.157l-5.821,0l0,13.636l6.404,0c2.744,0 4.241,-1.911 4.241,-4.324c0,-1.163 -0.499,-2.244 -1.663,-2.743c0.664,-0.499 1.08,-1.58 1.08,-2.412l0,0Zm-4.074,4.158c1.414,0 1.414,2.328 0,2.328l-2.744,0l0,-2.328l2.744,0Zm-0.416,-5.156c1.414,0 1.414,2.246 0,2.246l-2.246,0l0,-2.246l2.246,0Z" style="fill:#1d90ff;fill-rule:nonzero;"/><path d="M82.695,73.357l0,3.779c0,2.958 -2.547,4.682 -5.422,4.682c-2.711,0 -5.423,-1.724 -5.423,-4.682l0,-3.779l3.287,0l0,3.697c0,1.068 1.068,1.643 2.054,1.643c0.985,0 2.054,-0.493 2.054,-1.643l0,-3.697l3.45,0Zm-7.394,-3.696c0,0.41 -0.164,0.821 -0.411,1.067c-0.328,0.329 -0.657,0.411 -1.068,0.411c-0.082,0 -0.164,0 -0.246,0c-0.411,0 -0.821,-0.164 -1.068,-0.411c-0.329,-0.328 -0.411,-0.657 -0.411,-1.067c0,-0.412 0.164,-0.822 0.411,-1.068c0.247,-0.247 0.657,-0.411 1.068,-0.411c0.082,0 0.164,0 0.246,0c0.411,0 0.821,0.164 1.068,0.411c0.247,0.246 0.411,0.657 0.411,1.068Zm7.394,0c0,0.41 -0.165,0.821 -0.411,1.067c-0.328,0.329 -0.657,0.411 -1.068,0.411c-0.082,0 -0.164,0 -0.246,0c-0.411,0 -0.822,-0.164 -1.068,-0.411c-0.247,-0.246 -0.411,-0.657 -0.411,-1.067c0,-0.412 0.164,-0.822 0.411,-1.068c0.246,-0.247 0.657,-0.411 1.068,-0.411c0.082,0 0.164,0 0.246,0c0.411,0 0.821,0.164 1.068,0.411c0.246,0.246 0.411,0.657 0.411,1.068Z" style="fill:#1d90ff;fill-rule:nonzero;"/><path d="M91.519,68.182l-5.155,0l0,13.636l5.155,0c8.814,0 8.814,-13.553 0,-13.636Zm-1.579,3.243l1.663,0c4.323,0 4.323,7.317 0,7.317l-1.663,0l0,-7.317Z" style="fill:#1d90ff;fill-rule:nonzero;"/><path d="M106.971,68.182l-5.156,0l0,13.636l5.156,0c8.979,0 8.979,-13.553 0,-13.636Zm-1.664,3.243l1.664,0c4.323,0 4.323,7.317 0,7.317l-1.664,0l0,-7.317Z" style="fill:#1d90ff;fill-rule:nonzero;"/><path d="M121.596,78.76l0,-7.52l1.57,0c0,-1.157 0,-1.818 0,-3.058c-2.232,0 -4.38,0 -6.611,0c0,1.074 0,1.819 0,3.058l1.57,0l0,7.52l-1.736,0c0,1.075 0,1.819 0,3.058c2.315,0 4.629,0 6.943,0c0,-1.156 0,-1.901 0,-3.058c-0.084,0 -1.736,0 -1.736,0l0,0Z" style="fill:#1d90ff;fill-rule:nonzero;"/><path d="M135.674,68.182c-3.242,0 -5.404,0 -8.48,0c0,4.573 0,9.146 0,13.636c3.159,0 5.487,0 8.73,0c0,-1.08 0,-2.079 0,-3.159c-1.996,0 -3.243,0 -5.238,0c0,-0.831 0,-1.581 0,-2.411l4.656,0c0,-1.082 0,-2.079 0,-3.16l-4.656,0l0,-1.912c1.995,0 3.076,0 5.072,0c-0.084,-0.915 -0.084,-1.913 -0.084,-2.994Z" style="fill:#1d90ff;fill-rule:nonzero;"/><path d="M142.518,77.453c-1.126,0 -2.172,0 -3.217,0c-0.081,5.873 10.699,5.712 10.699,0.161c0,-3.298 -2.575,-3.7 -5.229,-3.861c-1.126,-0.161 -2.173,-0.322 -2.092,-1.367c0.161,-1.61 3.701,-1.771 3.701,0.079c1.125,0 2.011,0 3.217,0c0.081,-5.711 -10.217,-5.711 -10.136,0c0.08,2.897 1.93,3.863 4.827,4.023c1.287,0.08 2.494,0.242 2.494,1.126c-0.081,1.529 -4.264,1.609 -4.264,-0.161l0,0Z" style="fill:#1d90ff;fill-rule:nonzero;"/></g></g></g></svg>