<?xml version="1.0" encoding="UTF-8" standalone="no"?>
<svg width="159px" height="15px" viewBox="0 0 159 15" version="1.1" xmlns="http://www.w3.org/2000/svg" xmlns:xlink="http://www.w3.org/1999/xlink">
    <!-- Generator: Sketch 3.7.2 (28276) - http://www.bohemiancoding.com/sketch -->
    <title>logo</title>
    <desc>Created with Sketch.</desc>
    <defs></defs>
    <g id="About" stroke="none" stroke-width="1" fill="none" fill-rule="evenodd">
        <g id="Home-v6" transform="translate(-150.000000, -44.000000)" fill="#1E90FF">
            <g id="logo" transform="translate(150.000000, 44.000000)">
                <path d="M0,7.24 C0.02,12 3.62,14.4 7.18,14.38 C10.16,14.38 13.3,12.82 13.82,8.86 L10.3,8.86 C9.92,10.36 8.7,11.12 7.18,11.12 C5.06,11.1 3.7,9.3 3.7,7.24 C3.7,4.92 5.08,3.34 7.18,3.34 C8.68,3.34 9.74,3.98 10.24,5.4 L13.76,5.4 C13.22,1.66 10.08,0.08 7.18,0.08 C3.62,0.08 0.02,2.48 0,7.24 L0,7.24 Z" id="Fill-1"></path>
                <path d="M31.06,7.26 C31.06,-2.42 16.7,-2.42 16.7,7.26 C16.7,16.96 31.06,16.96 31.06,7.26 L31.06,7.26 Z M20.38,7.26 C20.38,2.22 27.4,2.22 27.4,7.26 C27.4,12.34 20.38,12.34 20.38,7.26 L20.38,7.26 Z" id="Fill-2"></path>
                <path d="M40.04,0.24 L34.76,0.24 L34.76,14.24 L40.04,14.24 C49.16,14.2 49.16,0.28 40.04,0.24 L40.04,0.24 Z M38.34,3.5 L40.04,3.5 C44.5,3.5 44.5,10.98 40.04,10.98 L38.34,10.98 L38.34,3.5 Z" id="Fill-3"></path>
                <path d="M59.34,0.24 L50.6,0.24 L50.6,14.24 L59.52,14.24 L59.52,11.06 L54.16,11.06 L54.16,8.6 L58.92,8.6 L58.92,5.42 L54.16,5.42 L54.16,3.44 L59.34,3.44 L59.34,0.24 L59.34,0.24 Z" id="Fill-4"></path>
                <path d="M73.94,4.54 C73.94,2.12 72,0.24 69.58,0.24 L63.6,0.24 L63.6,14.24 L70.16,14.24 C73.02,14.24 74.5,12.26 74.52,9.82 C74.52,8.58 73.98,7.54 72.84,6.96 C73.52,6.4 73.94,5.38 73.94,4.54 L73.94,4.54 Z M69.9,8.68 C71.34,8.68 71.36,11.06 69.92,11.06 L67.06,11.06 L67.06,8.68 L69.9,8.68 Z M69.3,3.44 C70.74,3.44 70.74,5.7 69.32,5.7 L67.06,5.7 L67.06,3.44 L69.3,3.44 Z" id="Fill-5"></path>
                <path d="M89.32,5.691 L89.32,9.58 C89.32,12.66 86.62,14.44 83.74,14.44 C80.88,14.44 78.18,12.66 78.18,9.58 L78.18,5.691 L81.6,5.691 L81.6,9.52 C81.6,10.66 82.7,11.22 83.74,11.22 C84.78,11.22 85.86,10.66 85.86,9.52 L85.86,5.691 L89.32,5.691 Z M78.18,3.4655 L81.6,3.4655 L81.6,0.24 L78.18,0.24 L78.18,3.4655 Z M85.86,3.4655 L89.32,3.4655 L89.32,0.24 L85.86,0.24 L85.86,3.4655 Z" id="Fill-6"></path>
                <path d="M99.04,0.24 L93.76,0.24 L93.76,14.24 L99.04,14.24 C108.16,14.2 108.16,0.28 99.04,0.24 L99.04,0.24 Z M97.34,3.5 L99.04,3.5 C103.5,3.5 103.5,10.98 99.04,10.98 L97.34,10.98 L97.34,3.5 Z" id="Fill-7"></path>
                <path d="M114.88,0.24 L109.6,0.24 L109.6,14.24 L114.88,14.24 C124,14.2 124,0.28 114.88,0.24 L114.88,0.24 Z M113.18,3.5 L114.88,3.5 C119.34,3.5 119.34,10.98 114.88,10.98 L113.18,10.98 L113.18,3.5 Z" id="Fill-8"></path>
                <path d="M129.6,11.1 L129.6,3.36 L131.24,3.36 L131.24,0.24 L124.42,0.24 L124.42,3.36 L126.06,3.36 L126.06,11.1 L124.28,11.1 L124.28,14.24 L131.38,14.24 L131.38,11.1 L129.6,11.1 Z" id="Fill-9"></path>
                <path d="M143.46,0.24 L134.72,0.24 L134.72,14.24 L143.64,14.24 L143.64,11.06 L138.28,11.06 L138.28,8.6 L143.04,8.6 L143.04,5.42 L138.28,5.42 L138.28,3.44 L143.46,3.44 L143.46,0.24 L143.46,0.24 Z" id="Fill-10"></path>
                <path d="M150.2,9.96 L146.74,9.96 C146.66,16.12 158.06,15.96 158.06,10.08 C158.06,6.58 155.34,6.22 152.56,5.92 C151.3,5.78 150.26,5.56 150.34,4.5 C150.46,2.84 154.22,2.68 154.22,4.54 L157.62,4.54 C157.7,-1.5 146.82,-1.5 146.94,4.54 C146.98,7.58 148.98,8.62 152.02,8.84 C153.42,8.92 154.58,9.08 154.58,10.06 C154.58,11.7 150.2,11.74 150.2,9.96 L150.2,9.96 Z" id="Fill-11"></path>
            </g>
        </g>
    </g>
</svg>